<!-- icons.svg -->
<svg xmlns="http://www.w3.org/2000/svg" style="display:none">
  <!-- ==== COMMON ==== -->
  <symbol id="icon-plus" viewBox="0 0 20 20">
    <path fill-rule="evenodd" d="M10 3a1 1 0 011 1v5h5a1 1 0 110 2h-5v5a1 1 0 11-2 0v-5H4a1 1 0 110-2h5V4a1 1 0 011-1z" clip-rule="evenodd"/>
  </symbol>

  <symbol id="icon-user" viewBox="0 0 20 20">
    <path d="M10 9a3 3 0 100-6 3 3 0 000 6zm-7 9a7 7 0 1114 0H3z"/>
  </symbol>

  <symbol id="icon-login" viewBox="0 0 20 20">
    <path fill-rule="evenodd" d="M3 3a1 1 0 011 1v12a1 1 0 11-2 0V4a1 1 0 011-1zm7.707 3.293a1 1 0 010 1.414L9.414 9H17a1 1 0 110 2H9.414l1.293 1.293a1 1 0 01-1.414 1.414l-3-3a1 1 0 010-1.414l3-3a1 1 0 011.414 0z" clip-rule="evenodd"/>
  </symbol>

  <symbol id="icon-export" viewBox="0 0 20 20">
    <path fill-rule="evenodd" d="M3 17a1 1 0 011-1h12a1 1 0 110 2H4a1 1 0 01-1-1zm3.293-7.707a1 1 0 011.414 0L9 10.586V3a1 1 0 112 0v7.586l1.293-1.293a1 1 0 111.414 1.414l-3 3a1 1 0 01-1.414 0l-3-3a1 1 0 010-1.414z" clip-rule="evenodd"/>
  </symbol>

  <symbol id="icon-logout" viewBox="0 0 20 20">
    <path fill-rule="evenodd" d="M3 3a1 1 0 00-1 1v12a1 1 0 102 0V4a1 1 0 00-1-1zm10.293 9.293a1 1 0 001.414 1.414l3-3a1 1 0 000-1.414l-3-3a1 1 0 10-1.414 1.414L14.586 9H7a1 1 0 100 2h7.586l-1.293 1.293z" clip-rule="evenodd"/>
  </symbol>

  <symbol id="icon-trash" viewBox="0 0 20 20">
    <path fill-rule="evenodd" d="M9 2a1 1 0 00-.894.553L7.382 4H4a1 1 0 000 2v10a2 2 0 002 2h8a2 2 0 002-2V6a1 1 0 100-2h-3.382l-.724-1.447A1 1 0 0011 2H9zM7 8a1 1 0 012 0v6a1 1 0 11-2 0V8zm5-1a1 1 0 00-1 1v6a1 1 0 102 0V8a1 1 0 00-1-1z" clip-rule="evenodd"/>
  </symbol>

  <!-- ==== TOOLBAR ==== -->
  <symbol id="icon-undo" viewBox="0 0 20 20">
    <path d="M8.445 14.832A1 1 0 0010 14c0-1.105-.447-2.103-1.17-2.828L5.172 7.515A1 1 0 004 8.172V12a1 1 0 002 0v-2.415l2.758 2.758A3.99 3.99 0 0110 12c0 2.21-1.79 4-4 4a1 1 0 100 2c3.314 0 6-2.686 6-6a1 1 0 00-1-1H8.445z"/>
  </symbol>

  <symbol id="icon-redo" viewBox="0 0 20 20">
    <path d="M11.555 5.168A1 1 0 0010 6c0 1.105.447 2.103 1.17 2.828l3.658 3.657A1 1 0 0016 11.828V8a1 1 0 10-2 0v2.415l-2.758-2.758A3.99 3.99 0 0110 8c0-2.21 1.79-4 4-4a1 1 0 100-2c-3.314 0-6 2.686-6 6a1 1 0 001 1h2.555z"/>
  </symbol>

  <symbol id="icon-copy" viewBox="0 0 20 20">
    <path d="M8 3a1 1 0 011-1h2a1 1 0 110 2H9a1 1 0 01-1-1z"/>
    <path d="M6 3a2 2 0 00-2 2v11a2 2 0 002 2h8a2 2 0 002-2V5a2 2 0 00-2-2 3 3 0 01-3 3H9a3 3 0 01-3-3z"/>
  </symbol>

  <symbol id="icon-cut" viewBox="0 0 20 20">
    <path fill-rule="evenodd" d="M10 3a1 1 0 01.707.293l3 3a1 1 0 01-1.414 1.414L10 5.414 7.707 7.707a1 1 0 11-1.414-1.414l3-3A1 1 0 0110 3zm-3.707 9.293a1 1 0 011.414 0L10 14.586l2.293-2.293a1 1 0 011.414 1.414l-3 3a1 1 0 01-1.414 0l-3-3a1 1 0 010-1.414z" clip-rule="evenodd"/>
    <path d="M10 3a1 1 0 011 1v12a1 1 0 11-2 0V4a1 1 0 011-1z"/>
  </symbol>

  <symbol id="icon-paste" viewBox="0 0 20 20">
    <path d="M8 2a1 1 0 000 2h2a1 1 0 100-2H8z"/>
    <path d="M3 5a2 2 0 012-2 3 3 0 003 3h2a3 3 0 003-3 2 2 0 012 2v6h-4.586l1.293-1.293a1 1 0 00-1.414-1.414l-3 3a1 1 0 000 1.414l3 3a1 1 0 001.414-1.414L10 13.414V18H4a2 2 0 01-2-2V5z"/>
  </symbol>

  <symbol id="icon-select-all" viewBox="0 0 20 20">
    <path fill-rule="evenodd" d="M3 4a1 1 0 011-1h12a1 1 0 110 2H4a1 1 0 01-1-1zm0 4a1 1 0 011-1h12a1 1 0 110 2H4a1 1 0 01-1-1zm0 4a1 1 0 011-1h12a1 1 0 110 2H4a1 1 0 01-1-1zm0 4a1 1 0 011-1h12a1 1 0 110 2H4a1 1 0 01-1-1z" clip-rule="evenodd"/>
  </symbol>

  <symbol id="icon-search" viewBox="0 0 20 20">
    <path fill-rule="evenodd" d="M8 4a4 4 0 100 8 4 4 0 000-8zM2 8a6 6 0 1110.89 3.476l4.817 4.817a1 1 0 01-1.414 1.414l-4.816-4.816A6 6 0 012 8z" clip-rule="evenodd"/>
  </symbol>

  <symbol id="icon-replace" viewBox="0 0 20 20">
    <path fill-rule="evenodd" d="M8 4a4 4 0 100 8 4 4 0 000-8zM2 8a6 6 0 1110.89 3.476l4.817 4.817a1 1 0 01-1.414 1.414l-4.816-4.816A6 6 0 012 8z" clip-rule="evenodd"/>
    <path fill-rule="evenodd" d="M13.5 12a1.5 1.5 0 100 3 1.5 1.5 0 000-3z" clip-rule="evenodd"/>
  </symbol>

  <symbol id="icon-menu" viewBox="0 0 20 20">
    <path fill-rule="evenodd" d="M3 5a1 1 0 011-1h12a1 1 0 110 2H4a1 1 0 01-1-1zm0 4a1 1 0 011-1h12a1 1 0 110 2H4a1 1 0 01-1-1zm0 4a1 1 0 011-1h6a1 1 0 110 2H4a1 1 0 01-1-1z" clip-rule="evenodd"/>
  </symbol>

  <symbol id="icon-tools" viewBox="0 0 20 20">
    <path fill-rule="evenodd" d="M11.49 3.17c-.38-1.56-2.6-1.56-2.98 0a1.532 1.532 0 01-2.286.948c-1.372-.836-2.942.734-2.106 2.106.547.902.342 2.088-.048 2.946-.838.482-1.7.098-1.362-.952.318-1.04.96-1.872 1.79-2.242a1.532 1.532 0 012.286-.948c.38 1.56 2.6 1.56 2.98 0a1.532 1.532 0 012.286.948c.87.53 1.512 1.362 1.194 2.402-.318 1.04-.96 1.872-1.79 2.242a1.532 1.532 0 01-2.286.948c-.38-1.56-2.6-1.56-2.98 0a1.532 1.532 0 01-2.286-.948c-.87-.53-1.512-1.362-1.194-2.402zM9 12a3 3 0 100-6 3 3 0 000 6z" clip-rule="evenodd"/>
  </symbol>

  <!-- ==== FORMATTING ==== -->
  <symbol id="icon-bold" viewBox="0 0 20 20">
    <path d="M15.5 8.5A3.5 3.5 0 0012 5H8a1 1 0 00-1 1v8a1 1 0 001 1h4.5a3.5 3.5 0 002.5-5.934A3.48 3.48 0 0015.5 8.5zM10 7h2a1.5 1.5 0 110 3h-2V7zm0 4h2.5a1.5 1.5 0 010 3H10v-3z"/>
  </symbol>

  <symbol id="icon-italic" viewBox="0 0 20 20">
    <path fill-rule="evenodd" d="M14.707 3.293a1 1 0 010 1.414L8.414 11l6.293 6.293a1 1 0 11-1.414 1.414L7 12.414l-6.293 6.293a1 1 0 01-1.414-1.414L5.586 11 0 5.414A1 1 0 011.414 4l6.293 6.293 6.293-6.293a1 1 0 011.414 0z" clip-rule="evenodd"/>
  </symbol>

  <symbol id="icon-underline" viewBox="0 0 20 20">
    <path fill-rule="evenodd" d="M6 3v7a6 6 0 0012 0V3h-2v7a4 4 0 01-8 0V3H6zm-2 15h12a1 1 0 110 2H4a1 1 0 110-2z" clip-rule="evenodd"/>
  </symbol>

  <symbol id="icon-clear" viewBox="0 0 20 20">
    <path fill-rule="evenodd" d="M6 2a1 1 0 00-1 1v1H4a2 2 0 00-2 2v10a2 2 0 002 2h10a2 2 0 002-2v-1h1a1 1 0 100-2h-1V6a2 2 0 00-2-2h-1V3a1 1 0 10-2 0v1H8V3a1 1 0 10-2 0zM4 6h12v8H4V6z" clip-rule="evenodd"/>
  </symbol>

  <!-- ==== AI PANEL ==== -->
  <symbol id="icon-ai-cube" viewBox="0 0 24 24">
    <path d="M12 14l9-5-9-5-9 5 9 5z" />
    <path d="M12 14l6.16-3.422a12.083 12.083 0 01.665 6.479A11.952 11.952 0 0012 20.055a11.952 11.952 0 00-6.824-2.998 12.078 12.078 0 01.665-6.479L12 14z"/>
    <path stroke-linecap="round" stroke-linejoin="round" d="M12 14l9-5-9-5-9 5 9 5zm0 0l6.16-3.422a12.083 12.083 0 01.665 6.479A11.952 11.952 0 0012 20.055a11.952 11.952 0 00-6.824-2.998 12.078 12.078 0 01.665-6.479L12 14z"/>
  </symbol>

  <symbol id="icon-apply" viewBox="0 0 20 20">
    <path fill-rule="evenodd" d="M10 18a8 8 0 100-16 8 8 0 000 16zm3.707-8.293l-3-3a1 1 0 00-1.414 1.414L10.586 9H7a1 1 0 100 2h3.586l-1.293 1.293a1 1 0 101.414 1.414l3-3a1 1 0 000-1.414z" clip-rule="evenodd"/>
  </symbol>

  <symbol id="icon-check" viewBox="0 0 20 20">
    <path fill-rule="evenodd" d="M16.707 5.293a1 1 0 010 1.414l-8 8a1 1 0 01-1.414 0l-4-4a1 1 0 011.414-1.414L8 12.586l7.293-7.293a1 1 0 011.414 0z" clip-rule="evenodd"/>
  </symbol>

  <symbol id="icon-close" viewBox="0 0 20 20">
    <path fill-rule="evenodd" d="M4.293 4.293a1 1 0 011.414 0L10 8.586l4.293-4.293a1 1 0 111.414 1.414L11.414 10l4.293 4.293a1 1 0 01-1.414 1.414L10 11.414l-4.293 4.293a1 1 0 01-1.414-1.414L8.586 10 4.293 5.707a1 1 0 010-1.414z" clip-rule="evenodd"/>
  </symbol>
  
   <!-- ==== SETTINGS MENU ==== -->
<symbol id="icon-settings" viewBox="0 0 20 20">
  <path fill-rule="evenodd" d="M10 13a3 3 0 100-6 3 3 0 000 6zm0-2a1 1 0 100-2 1 1 0 000 2z" clip-rule="evenodd"/>
  <path d="M7 3l1 1.5a6 6 0 001.5 1.5L11 5l1 1-1.5 1a6 6 0 001.5 1.5L14 9l-1 1-1.5-1a6 6 0 00-1.5 1.5L9 13l-1-1 1-1.5a6 6 0 00-1.5-1.5L5 11l-1-1 1.5-1a6 6 0 00-1.5-1.5L3 7l1-1 1 1.5A6 6 0 007 6L8 5l-1-2z" clip-rule="evenodd"/>
</symbol>
  <symbol id="icon-close" viewBox="0 0 24 24">
  <path d="M19 6.41L17.59 5 12 10.59 6.41 5 5 6.41 10.59 12 5 17.59 6.41 19 12 13.41 17.59 19 19 17.59 13.41 12z"/>
</symbol>

<symbol id="icon-ai-cube" viewBox="0 0 24 24">
  <path d="M21 16.5c0 .38-.21.71-.53.88l-7.9 4.44c-.16.12-.36.18-.57.18s-.41-.06-.57-.18l-7.9-4.44A.991.991 0 013 16.5v-9c0-.38.21-.71.53-.88l7.9-4.44c.16-.12.36-.18.57-.18s.41.06.57.18l7.9 4.44c.32.17.53.5.53.88v9zM12 4.15L6.04 7.5 12 10.85l5.96-3.35L12 4.15zM5 15.91l6 3.38v-6.71L5 9.21v6.7zm14 0v-6.7l-6 3.37v6.71l6-3.38z"/>
</symbol>

<!-- Rename – Edit 3 -->
<symbol id="icon-rename" viewBox="0 0 18 18">
  <path d="M12 3L15 6M13.5 4.5L9.5 8.5L8.5 11.5L11.5 10.5L15.5 6.5L13.5 4.5Z" 
        fill="none" stroke="currentColor" stroke-width="1.6" stroke-linecap="round" stroke-linejoin="round"/>
  <path d="M4 14L8 10M2 16H5L14 7L11 4L2 13V16Z" 
        fill="none" stroke="currentColor" stroke-width="1.6" stroke-linecap="round" stroke-linejoin="round"/>
</symbol>

<!-- Delete – Trash 2 -->
<symbol id="icon-delete" viewBox="0 0 18 18">
  <path d="M3 5H15M6 5V3C6 2.4 6.4 2 7 2H11C11.6 2 12 2.4 12 3V5M14 5L13.3 13C13.1 14.7 11.7 16 10 16H8C6.3 16 4.9 14.7 4.7 13L4 5" 
        fill="none" stroke="currentColor" stroke-width="1.6" stroke-linecap="round" stroke-linejoin="round"/>
  <path d="M7 8V13M11 8V13" 
        fill="none" stroke="currentColor" stroke-width="1.6" stroke-linecap="round"/>
</symbol>

<symbol id="icon-download" viewBox="0 0 18 18">
  <path d="M3 13H15M9 3V11M9 11L6 8M9 11L12 8" 
        fill="none" stroke="currentColor" stroke-width="1.6" stroke-linecap="round" stroke-linejoin="round"/>
</symbol>
  <!-- Help icon -->
  <symbol id="icon-help" viewBox="0 0 24 24">
    <circle cx="12" cy="12" r="10" fill="none" stroke="currentColor" stroke-width="2"/>
    <circle cx="12" cy="18" r="0.5" fill="currentColor"/>
    <path d="M12 16v-4" stroke="currentColor" stroke-width="2"/>
    <path d="M12 8h0" stroke="currentColor" stroke-width="2"/>
  </symbol>
  
</svg>
